<svg width="1515" height="598" viewBox="0 0 1515 598" fill="none" xmlns="http://www.w3.org/2000/svg">
<path d="M174.112 449.91C165.976 440.762 145.661 422.93 128.967 410.281C79.506 372.803 72.774 367.379 52.6916 348.826C15.6688 314.62 -0.0541972 280.256 0.000140326 233.659C0.0261278 210.913 1.5712 202.149 7.91983 188.742C18.6917 165.994 34.5576 149.091 54.8426 138.753C69.2102 131.431 76.2959 128.177 100.288 128.044C125.386 127.905 130.669 130.841 145.433 138.979C163.402 148.884 181.897 170.053 185.721 185.09L188.082 194.377L193.905 181.586C226.813 109.305 331.875 110.386 368.436 183.383C380.035 206.539 381.308 255.984 371.024 283.837C357.607 320.169 332.409 347.868 274.157 390.313C235.955 418.15 192.719 460.268 189.71 466.183C186.215 473.051 189.542 467.26 174.112 449.91Z" fill="#FF0000"/>
<path d="M228.648 191.64L228.673 191.644L228.698 191.648C234.31 192.467 239.24 196.838 242.462 203.974C245.67 211.078 247.002 220.598 245.524 230.834L245.524 230.839C244.159 240.424 240.576 248.73 235.915 254.583C231.228 260.467 225.666 263.638 220.313 263.638C219.679 263.638 218.996 263.588 218.377 263.493L218.367 263.491L218.357 263.49C212.745 262.67 207.815 258.299 204.592 251.17C201.385 244.073 200.054 234.568 201.53 224.363L201.531 224.357C202.896 214.771 206.479 206.466 211.141 200.613C215.827 194.729 221.389 191.558 226.742 191.558H226.974V191.5C227.529 191.5 228.087 191.546 228.648 191.64ZM262.247 268.237L262.247 268.236C265.476 260.27 270.143 253.719 275.292 249.168C280.457 244.602 285.952 242.175 290.88 242.094H291.091C292.968 242.094 294.734 242.437 296.463 243.127C301.716 245.303 305.451 250.753 306.878 258.451C308.3 266.119 307.33 275.661 303.485 285.196C300.229 293.215 295.507 299.805 290.306 304.362C285.078 308.941 279.53 311.334 274.584 311.334C272.707 311.334 270.941 310.991 269.211 310.3C263.93 308.124 260.197 302.675 258.784 294.982C257.376 287.316 258.373 277.774 262.247 268.237ZM228.862 315.178L228.864 315.181C236.007 326.353 246.703 332.431 256.046 337.742C256.22 337.84 256.393 337.939 256.566 338.037C266.297 343.571 274.069 348.194 277.169 356.388L277.188 356.438L277.209 356.488C278.467 359.424 279.15 362.624 279.15 366.051C279.15 379.577 268.268 390.5 254.833 390.5C246.411 390.5 236.43 387.42 225.49 384.043C225.073 383.915 224.655 383.786 224.235 383.656C213.019 380.199 200.944 376.591 189.557 376.591C178.172 376.591 166.068 380.198 154.823 383.656C154.403 383.785 153.983 383.914 153.565 384.043C142.597 387.419 132.589 390.5 124.165 390.5C110.723 390.5 99.7904 379.57 99.7904 366.051C99.7904 362.597 100.426 359.399 101.674 356.488L101.694 356.439L101.713 356.39C104.812 348.225 112.596 343.602 122.346 338.059C122.51 337.966 122.674 337.872 122.839 337.778C132.204 332.457 142.927 326.363 150.077 315.181L150.078 315.18C158.182 302.492 163.779 294.114 169.552 288.84C175.115 283.758 180.853 281.561 189.499 281.561C198.149 281.561 203.87 283.745 209.417 288.817C215.175 294.083 220.757 302.459 228.862 315.178ZM160.643 263.432L160.633 263.433L160.622 263.435C160.003 263.53 159.32 263.58 158.686 263.58C153.365 263.58 147.817 260.412 143.128 254.525C138.464 248.67 134.867 240.362 133.474 230.775C131.997 220.567 133.315 211.061 136.515 203.966C139.729 196.841 144.658 192.468 150.3 191.648L150.31 191.646L150.32 191.645C150.94 191.549 151.623 191.5 152.257 191.5C157.581 191.5 163.128 194.656 167.816 200.534C172.478 206.381 176.075 214.688 177.468 224.305C178.946 234.512 177.628 244.018 174.427 251.114C171.213 258.239 166.285 262.611 160.643 263.432ZM116.81 268.237L116.81 268.237C120.684 277.774 121.681 287.316 120.273 294.982C118.86 302.675 115.126 308.124 109.846 310.3C108.116 310.991 106.35 311.334 104.472 311.334C99.5268 311.334 93.9782 308.941 88.751 304.362C83.5483 299.804 78.8263 293.212 75.5698 285.191L75.5697 285.191C71.6961 275.655 70.6991 266.112 72.1068 258.446C73.5196 250.753 77.2536 245.305 82.5339 243.128C84.2638 242.437 86.0302 242.094 87.9073 242.094C92.853 242.094 98.4016 244.488 103.629 249.067C108.831 253.624 113.553 260.216 116.81 268.237Z" fill="white" stroke="black" stroke-width="5"/>
<path d="M393.39 396V207H484.38C502.02 207 517.23 209.88 530.01 215.64C542.97 221.4 552.96 229.68 559.98 240.48C567 251.1 570.51 263.7 570.51 278.28C570.51 292.86 567 305.46 559.98 316.08C552.96 326.7 542.97 334.98 530.01 340.92C517.23 346.68 502.02 349.56 484.38 349.56H428.76L457.11 322.29V396H393.39ZM457.11 329.31L428.76 300.42H480.33C489.15 300.42 495.63 298.44 499.77 294.48C504.09 290.52 506.25 285.12 506.25 278.28C506.25 271.44 504.09 266.04 499.77 262.08C495.63 258.12 489.15 256.14 480.33 256.14H428.76L457.11 227.25V329.31ZM671.058 398.7C653.058 398.7 637.308 395.37 623.808 388.71C610.488 382.05 600.138 372.96 592.758 361.44C585.378 349.74 581.688 336.6 581.688 322.02C581.688 307.08 585.288 293.85 592.488 282.33C599.868 270.81 609.858 261.81 622.458 255.33C635.238 248.85 649.548 245.61 665.388 245.61C679.968 245.61 693.378 248.49 705.618 254.25C718.038 260.01 727.938 268.56 735.318 279.9C742.878 291.24 746.658 305.28 746.658 322.02C746.658 324.18 746.568 326.61 746.388 329.31C746.208 331.83 746.028 334.17 745.848 336.33H632.178V306.9H713.448L690.498 314.73C690.498 308.97 689.418 304.11 687.258 300.15C685.278 296.01 682.488 292.86 678.888 290.7C675.288 288.36 670.968 287.19 665.928 287.19C660.888 287.19 656.478 288.36 652.698 290.7C649.098 292.86 646.308 296.01 644.328 300.15C642.348 304.11 641.358 308.97 641.358 314.73V323.91C641.358 330.21 642.618 335.61 645.138 340.11C647.658 344.61 651.258 348.03 655.938 350.37C660.618 352.53 666.288 353.61 672.948 353.61C679.788 353.61 685.368 352.71 689.688 350.91C694.188 349.11 698.868 346.41 703.728 342.81L735.588 374.94C728.388 382.68 719.478 388.62 708.858 392.76C698.418 396.72 685.818 398.7 671.058 398.7ZM837.194 398.7C816.854 398.7 801.014 393.84 789.674 384.12C778.334 374.22 772.664 359.1 772.664 338.76V215.1H833.684V338.22C833.684 342.72 834.854 346.23 837.194 348.75C839.714 351.27 842.774 352.53 846.374 352.53C851.594 352.53 856.184 351.18 860.144 348.48L874.724 390.87C870.044 393.57 864.374 395.55 857.714 396.81C851.234 398.07 844.394 398.7 837.194 398.7ZM752.414 300.96V256.41H863.924V300.96H752.414Z" fill="white"/>
<path d="M891.994 396V207H982.984C1000.62 207 1015.83 209.88 1028.61 215.64C1041.57 221.4 1051.56 229.68 1058.58 240.48C1065.6 251.1 1069.11 263.7 1069.11 278.28C1069.11 292.86 1065.6 305.46 1058.58 316.08C1051.56 326.7 1041.57 334.98 1028.61 340.92C1015.83 346.68 1000.62 349.56 982.984 349.56H927.364L955.714 322.29V396H891.994ZM955.714 329.31L927.364 300.42H978.934C987.754 300.42 994.234 298.44 998.374 294.48C1002.69 290.52 1004.85 285.12 1004.85 278.28C1004.85 271.44 1002.69 266.04 998.374 262.08C994.234 258.12 987.754 256.14 978.934 256.14H927.364L955.714 227.25V329.31ZM1090.76 396V195.66H1151.78V396H1090.76ZM1240.38 398.7C1228.68 398.7 1218.06 396.36 1208.52 391.68C1199.16 386.82 1191.78 379.35 1186.38 369.27C1180.98 359.01 1178.28 345.87 1178.28 329.85V248.31H1239.3V319.32C1239.3 329.76 1241.01 337.05 1244.43 341.19C1247.85 345.33 1252.53 347.4 1258.47 347.4C1262.07 347.4 1265.4 346.5 1268.46 344.7C1271.7 342.72 1274.31 339.57 1276.29 335.25C1278.27 330.75 1279.26 324.9 1279.26 317.7V248.31H1340.28V396H1282.23V353.34L1293.84 364.95C1288.62 376.47 1281.15 385.02 1271.43 390.6C1261.89 396 1251.54 398.7 1240.38 398.7ZM1425.13 398.7C1412.53 398.7 1400.11 397.35 1387.87 394.65C1375.63 391.95 1365.73 388.44 1358.17 384.12L1374.91 343.89C1381.93 348.03 1390.03 351.27 1399.21 353.61C1408.57 355.95 1417.66 357.12 1426.48 357.12C1433.86 357.12 1438.81 356.49 1441.33 355.23C1444.03 353.97 1445.38 352.26 1445.38 350.1C1445.38 347.94 1443.85 346.41 1440.79 345.51C1437.73 344.43 1433.68 343.62 1428.64 343.08C1423.6 342.54 1418.02 341.91 1411.9 341.19C1405.96 340.29 1399.93 339.03 1393.81 337.41C1387.69 335.79 1382.11 333.36 1377.07 330.12C1372.03 326.88 1367.98 322.56 1364.92 317.16C1361.86 311.58 1360.33 304.56 1360.33 296.1C1360.33 286.74 1363.12 278.28 1368.7 270.72C1374.46 263.16 1382.92 257.13 1394.08 252.63C1405.42 247.95 1419.37 245.61 1435.93 245.61C1446.73 245.61 1457.53 246.6 1468.33 248.58C1479.13 250.56 1488.4 253.62 1496.14 257.76L1479.4 297.99C1471.84 293.85 1464.37 291.06 1456.99 289.62C1449.79 288 1443.04 287.19 1436.74 287.19C1429 287.19 1423.69 287.91 1420.81 289.35C1418.11 290.79 1416.76 292.41 1416.76 294.21C1416.76 296.37 1418.29 297.99 1421.35 299.07C1424.41 300.15 1428.46 300.96 1433.5 301.5C1438.54 302.04 1444.03 302.76 1449.97 303.66C1456.09 304.38 1462.12 305.64 1468.06 307.44C1474.18 309.06 1479.76 311.49 1484.8 314.73C1489.84 317.97 1493.89 322.38 1496.95 327.96C1500.01 333.36 1501.54 340.29 1501.54 348.75C1501.54 357.57 1498.75 365.85 1493.17 373.59C1487.59 381.15 1479.13 387.27 1467.79 391.95C1456.45 396.45 1442.23 398.7 1425.13 398.7Z" fill="#FF0000"/>
</svg>
